# xmcd
#
# Track frame offsets:
#	150
#	41207
#	69018
#	96766
#	138624
#	170954
#	197806
#	234511
#	260747
#
# Disc length: 3978 seconds
#
# Revision: 1
# Processed by: cddbd v1.5.2PL0 Copyright (c) Steve Scherf et al.
# Submitted via: audiograbber 1.83.01
#
DISCID=860f8809
DTITLE=CD Pool - House - August 07
DYEAR=2007
DGENRE=House
TTITLE0=The Sunlovers - Feel Da Riddim (Jordan Rivera Mix)
TTITLE1=Sean Biddle - Baby Girl
TTITLE2=Rachael Claudio - Freedom (DJ Fudge Remix)
TTITLE3=Ryb FT Angelita Jimenz - Brasilian Breeze (Stereo Mutant's Club Mix)
TTITLE4=Ali Sural FT. Gamze - Love Is The Answer (U-Ness Emre Answer Dub)
TTITLE5=Ibizadogs - Summer Day (Glamour Mix)
TTITLE6=First Life - Survival (Monkey Dust Dub)
TTITLE7=The Westside Kings FT Funkmaster Scott - Members Of House Music (Funkma
TTITLE7=ster Mixx)
TTITLE8=DJ Latin Mix FT Yvonne - Descarga (MK's Afro Sol Rio Funk Mix)
EXTD=
EXTT0=
EXTT1=
EXTT2=
EXTT3=
EXTT4=
EXTT5=
EXTT6=
EXTT7=
EXTT8=
PLAYORDER=
